<?xml version="1.0" encoding="iso-8859-1"?>
<!-- Uploaded to: SVG Repo, www.svgrepo.com, Generator: SVG Repo Mixer Tools -->
<svg fill="#000000" height="800px" width="800px" version="1.1" id="Layer_1" xmlns="http://www.w3.org/2000/svg" xmlns:xlink="http://www.w3.org/1999/xlink" 
	 viewBox="0 0 511.999 511.999" xml:space="preserve">
<g>
	<g>
		<path d="M10.199,250.09C4.566,250.09,0,254.656,0,260.289v97.121c0,5.633,4.566,10.199,10.199,10.199
			c5.633,0,10.199-4.566,10.199-10.199v-97.121C20.398,254.656,15.832,250.09,10.199,250.09z"/>
	</g>
</g>
<g>
	<g>
		<path d="M49.766,238.916c-5.633,0-10.199,4.566-10.199,10.199v118.663c0,5.633,4.566,10.199,10.199,10.199
			s10.199-4.566,10.199-10.2V249.115C59.965,243.482,55.399,238.916,49.766,238.916z"/>
	</g>
</g>
<g>
	<g>
		<path d="M89.975,208.882c-5.633,0-10.199,4.566-10.199,10.199v150.066c0,5.633,4.566,10.199,10.199,10.199
			c5.633,0,10.199-4.566,10.199-10.198V219.081C100.175,213.448,95.608,208.882,89.975,208.882z"/>
	</g>
</g>
<g>
	<g>
		<path d="M130.86,179.397c-5.633,0-10.199,4.566-10.199,10.199v179.533c0,5.633,4.566,10.199,10.199,10.199
			s10.199-4.566,10.199-10.199V189.597C141.059,183.964,136.493,179.397,130.86,179.397z"/>
	</g>
</g>
<g>
	<g>
		<path d="M172.388,177.685c-5.633,0-10.199,4.566-10.199,10.199v181.3c0,5.633,4.566,10.199,10.199,10.199
			c5.633,0,10.199-4.566,10.199-10.2V187.884C182.587,182.251,178.021,177.685,172.388,177.685z"/>
	</g>
</g>
<g>
	<g>
		<path d="M214.539,159.829c-5.633,0-10.199,4.566-10.199,10.199v199.361c0,5.633,4.566,10.199,10.199,10.199
			c5.633,0,10.199-4.566,10.199-10.2v-199.36C224.738,164.395,220.172,159.829,214.539,159.829z"/>
	</g>
</g>
<g>
	<g>
		<path d="M438.257,230.703c-5.483,0-10.88,0.602-16.146,1.795c-4.906-25.833-17.856-49.457-37.216-67.513
			c-22.626-21.1-52.055-32.721-82.865-32.721c-14.987,0-30.32,2.904-44.335,8.395c-3.089,1.207-12.488,4.881-12.61,16.958
			c0,0.035,0,0.068,0,0.103v204.106c0,0.048,0.001,0.095,0.001,0.143c0.128,9.117,7.019,16.69,16.029,17.614
			c0.042,0.005,0.084,0.009,0.126,0.012c1.078,0.097,175.262,0.138,177.017,0.138c40.661,0,73.742-33.43,73.741-74.522
			C511.999,264.127,478.919,230.703,438.257,230.703z M438.258,359.337c-1.478,0-148.84-0.07-172.776-0.092h0.002V159.519
			c11.579-4.486,24.207-6.855,36.547-6.855c53.2,0,96.831,40.465,101.487,94.126c0.281,3.257,2.108,6.181,4.91,7.863
			c2.802,1.682,6.24,1.919,9.248,0.638c6.524-2.779,13.45-4.189,20.582-4.189c29.413,0,53.344,24.274,53.344,54.11
			C491.602,335.057,467.671,359.337,438.258,359.337z"/>
	</g>
</g>
<g>
	<g>
		<path d="M394.709,329.434H288.637c-5.633,0-10.199,4.566-10.199,10.199c0,5.633,4.566,10.199,10.199,10.199h106.072
			c5.633,0,10.199-4.566,10.199-10.199C404.908,334,400.342,329.434,394.709,329.434z"/>
	</g>
</g>
<g>
	<g>
		<path d="M436.526,329.434h-5.1c-5.633,0-10.199,4.566-10.199,10.199c0,5.633,4.566,10.199,10.199,10.199h5.1
			c5.633,0,10.199-4.566,10.199-10.199C446.725,334,442.159,329.434,436.526,329.434z"/>
	</g>
</g>
</svg>